<svg fill="#000000" xmlns="http://www.w3.org/2000/svg"  viewBox="0 0 50 50" width="50px" height="50px"><path d="M38,3H12c-4.96,0-9,4.04-9,9v26c0,4.96,4.04,9,9,9h26c4.96,0,9-4.04,9-9V12C47,7.04,42.96,3,38,3z M42,37c0,2.76-2.24,5-5,5H13c-2.76,0-5-2.24-5-5V17h4.32c2.66-4.2,7.35-7,12.68-7s10.02,2.8,12.68,7H42V37z M42,12c0,0.55-0.45,1-1,1h-3c-0.55,0-1-0.45-1-1V9c0-0.55,0.45-1,1-1h3c0.55,0,1,0.45,1,1V12z"/><path d="M25,12c-7.17,0-13,5.83-13,13s5.83,13,13,13s13-5.83,13-13S32.17,12,25,12z M25,34c-4.96,0-9-4.04-9-9s4.04-9,9-9s9,4.04,9,9S29.96,34,25,34z"/></svg>